<svg xmlns="http://www.w3.org/2000/svg" xmlns:xlink="http://www.w3.org/1999/xlink" width="500" zoomAndPan="magnify" viewBox="0 0 375 374.999991" height="500" preserveAspectRatio="xMidYMid meet" version="1.0"><defs><clipPath id="5c52f25400"><path d="M 65.066406 84.65625 L 309.933594 84.65625 L 309.933594 288 L 65.066406 288 Z M 65.066406 84.65625 " clip-rule="nonzero"/></clipPath><clipPath id="784cf65e62"><path d="M 127.398438 111.023438 L 219.226562 111.023438 L 219.226562 264 L 127.398438 264 Z M 127.398438 111.023438 " clip-rule="nonzero"/></clipPath></defs><g clip-path="url(#5c52f25400)"><path fill="#1adba9" d="M 309.386719 139.554688 C 308.851562 126.316406 303.691406 113.660156 294.878906 103.78125 C 286.410156 94.28125 274.496094 87.714844 261.914062 85.773438 C 254.605469 84.644531 247.140625 85 239.769531 85 C 231.953125 85 224.132812 85 216.316406 85 C 193.835938 85 171.347656 85 148.867188 85 C 140.085938 85 131.300781 84.9375 122.515625 85 C 103.347656 85.132812 85.460938 94.652344 74.859375 110.671875 C 68.753906 119.90625 65.085938 131.65625 65.648438 142.78125 C 66.214844 154.011719 73.371094 163.644531 83.636719 167.59375 C 83.636719 192.617188 83.636719 217.640625 83.636719 242.664062 C 83.636719 248.332031 83.636719 254.003906 83.636719 259.675781 C 83.636719 264.929688 83.925781 269.941406 86.507812 274.734375 C 94.921875 290.347656 114.558594 286.902344 129.410156 286.902344 C 155.128906 286.902344 180.84375 286.902344 206.5625 286.902344 C 212.992188 286.902344 219.425781 286.902344 225.863281 286.902344 C 230.25 286.902344 234.714844 287.148438 238.941406 285.714844 C 248.699219 282.40625 254.796875 273.394531 254.996094 263.226562 C 255.066406 259.628906 254.996094 256.019531 254.996094 252.414062 C 254.996094 224.140625 254.996094 195.863281 254.996094 167.589844 C 263.742188 164.21875 270.613281 156.628906 272.441406 147.25 C 274.757812 135.367188 270.726562 122.144531 264.625 112.007812 C 261.445312 106.726562 253.152344 111.539062 256.34375 116.84375 C 264.398438 130.222656 269.097656 154.570312 248.921875 159.457031 C 246.886719 159.949219 245.402344 162.019531 245.402344 164.078125 C 245.402344 189.300781 245.402344 214.519531 245.402344 239.746094 C 245.402344 245.6875 245.402344 251.625 245.402344 257.566406 C 245.402344 260.734375 245.75 264.273438 244.863281 267.34375 C 241.230469 279.957031 225.921875 277.320312 215.886719 277.320312 C 190.125 277.320312 164.359375 277.320312 138.597656 277.320312 C 133.460938 277.320312 128.316406 277.320312 123.175781 277.320312 C 117.179688 277.320312 110.609375 278.132812 104.6875 277.128906 C 91.015625 274.808594 93.222656 259.648438 93.222656 249.519531 C 93.222656 221.714844 93.222656 193.902344 93.222656 166.097656 C 93.222656 165.425781 93.222656 164.75 93.222656 164.078125 C 93.222656 162.03125 91.742188 159.949219 89.703125 159.457031 C 68.140625 154.234375 74.738281 127.003906 84.273438 113.867188 C 93.375 101.332031 107.976562 94.617188 123.277344 94.589844 C 145.898438 94.539062 168.519531 94.589844 191.144531 94.589844 C 199.535156 94.589844 207.921875 94.589844 216.316406 94.589844 C 228.292969 94.589844 240.261719 94.546875 252.238281 94.589844 C 273.539062 94.667969 292.703125 108.722656 298.253906 129.5 C 299.789062 135.242188 300.8125 141.984375 298.824219 147.738281 C 296.714844 153.835938 291.503906 157.964844 285.351562 159.449219 C 283.3125 159.941406 281.828125 162.015625 281.828125 164.074219 C 281.828125 195.234375 281.828125 226.394531 281.828125 257.558594 C 281.828125 259.445312 281.867188 261.339844 281.828125 263.226562 C 281.707031 269.371094 278.171875 274.632812 272.277344 276.644531 C 266.472656 278.632812 268.964844 287.894531 274.828125 285.890625 C 285.683594 282.179688 291.417969 272.785156 291.417969 261.601562 C 291.417969 254.96875 291.417969 248.332031 291.417969 241.703125 C 291.417969 221.050781 291.417969 200.402344 291.417969 179.75 C 291.417969 175.699219 291.417969 171.652344 291.417969 167.597656 C 302.84375 163.226562 309.890625 152.007812 309.386719 139.554688 Z M 309.386719 139.554688 " fill-opacity="1" fill-rule="nonzero"/></g><g clip-path="url(#784cf65e62)"><path fill="#1adba9" d="M 173.285156 242.789062 C 159.667969 242.789062 148.585938 231.71875 148.578125 218.105469 C 148.585938 204.492188 159.667969 193.417969 173.285156 193.417969 C 186.898438 193.417969 197.980469 204.492188 197.988281 218.105469 C 197.980469 231.71875 186.898438 242.789062 173.285156 242.789062 Z M 173.285156 172.242188 C 164.191406 172.242188 155.71875 174.914062 148.578125 179.496094 L 148.578125 111.023438 L 127.398438 111.023438 L 127.398438 219.261719 L 127.429688 219.261719 C 128.058594 244.015625 148.386719 263.96875 173.285156 263.96875 C 198.5625 263.96875 219.144531 243.40625 219.167969 218.085938 C 219.144531 192.808594 198.5625 172.242188 173.285156 172.242188 " fill-opacity="1" fill-rule="nonzero"/></g></svg>